<svg width="28" height="26" viewBox="0 0 28 26" fill="none" xmlns="http://www.w3.org/2000/svg">
<g filter="url(#filter0_d_121_91)">
<path d="M19.0712 22.6126C18.2157 22.6063 17.364 22.4989 16.5337 22.2927C13.6664 21.6009 10.7138 19.846 8.22117 17.3512C5.72851 14.8563 3.9714 11.9032 3.2796 9.03866C2.55117 6.02538 3.0707 3.44741 4.74086 1.77725L5.21773 1.30038C5.6504 0.868578 6.2367 0.626068 6.84796 0.626068C7.45923 0.626068 8.04553 0.868578 8.4782 1.30038L11.2186 4.04022C11.6507 4.47274 11.8934 5.0591 11.8934 5.67045C11.8934 6.28181 11.6507 6.86817 11.2186 7.30069L9.59984 8.91889C10.3759 10.2806 11.4313 11.6434 12.6787 12.8908C13.9262 14.1383 15.2901 15.1943 16.6512 15.9703L18.2694 14.3515C18.4835 14.1374 18.7377 13.9675 19.0174 13.8517C19.2971 13.7358 19.5969 13.6761 19.8997 13.6761C20.2025 13.6761 20.5023 13.7358 20.782 13.8517C21.0617 13.9675 21.3159 14.1374 21.5299 14.3515L24.2698 17.0914C24.7019 17.5238 24.9447 18.11 24.9447 18.7214C24.9447 19.3327 24.7019 19.919 24.2698 20.3513L23.7923 20.8282C22.6149 22.0078 20.9852 22.6126 19.0712 22.6126ZM6.84796 2.26561C6.76065 2.26518 6.67412 2.28217 6.59346 2.3156C6.51279 2.34904 6.43961 2.39823 6.3782 2.4603L5.90078 2.93717C4.65007 4.18788 4.28476 6.21842 4.8721 8.65147C5.4939 11.2289 7.0946 13.9069 9.3789 16.1907C11.6632 18.4744 14.3407 20.0735 16.9187 20.6975C19.3523 21.2848 21.3817 20.9195 22.6324 19.6688L23.1093 19.1919C23.2339 19.0672 23.3039 18.8982 23.3039 18.7219C23.3039 18.5456 23.2339 18.3766 23.1093 18.2519L20.37 15.512C20.2453 15.3874 20.0762 15.3174 19.9 15.3174C19.7237 15.3174 19.5546 15.3874 19.4299 15.512L17.3786 17.5633C17.2555 17.6865 17.0964 17.7673 16.9244 17.794C16.7523 17.8208 16.5762 17.7921 16.4216 17.7121C14.7399 16.8426 13.0446 15.5765 11.5188 14.0508C9.99304 12.525 8.72976 10.8308 7.85804 9.14913C7.77799 8.99452 7.7492 8.81846 7.77585 8.64641C7.80249 8.47436 7.88318 8.31525 8.00625 8.1921L10.0581 6.14077C10.1827 6.01607 10.2527 5.84701 10.2527 5.67073C10.2527 5.49445 10.1827 5.32539 10.0581 5.20069L7.31828 2.4603C7.25667 2.39833 7.18338 2.34922 7.10264 2.3158C7.02191 2.28238 6.93534 2.26532 6.84796 2.26561Z" fill="white"/>
<path d="M19.9473 12.7509C19.7297 12.7509 19.5211 12.6644 19.3672 12.5106C19.2134 12.3568 19.127 12.1481 19.127 11.9305C19.1254 10.4915 18.553 9.11176 17.5355 8.09412C16.5179 7.07648 15.1383 6.504 13.6992 6.50226C13.4817 6.50226 13.273 6.41583 13.1192 6.26199C12.9653 6.10816 12.8789 5.89951 12.8789 5.68195C12.8789 5.46439 12.9653 5.25574 13.1192 5.1019C13.273 4.94806 13.4817 4.86163 13.6992 4.86163C17.5968 4.86163 20.7676 8.03351 20.7676 11.9305C20.7676 12.1481 20.6812 12.3568 20.5273 12.5106C20.3735 12.6644 20.1648 12.7509 19.9473 12.7509Z" fill="white"/>
<path d="M23.4145 12.7508C23.1969 12.7508 22.9882 12.6644 22.8344 12.5106C22.6806 12.3567 22.5941 12.1481 22.5941 11.9305C22.5941 7.02561 18.602 3.03506 13.6992 3.03506C13.4817 3.03506 13.273 2.94864 13.1192 2.7948C12.9653 2.64096 12.8789 2.43231 12.8789 2.21475C12.8789 1.99719 12.9653 1.78854 13.1192 1.6347C13.273 1.48087 13.4817 1.39444 13.6992 1.39444C19.5087 1.39444 24.2348 6.12108 24.2348 11.9305C24.2348 12.1481 24.1483 12.3567 23.9945 12.5106C23.8407 12.6644 23.632 12.7508 23.4145 12.7508Z" fill="white"/>
</g>
<defs>
<filter id="filter0_d_121_91" x="-1.04175" y="0.626068" width="29.9865" height="29.9866" filterUnits="userSpaceOnUse" color-interpolation-filters="sRGB">
<feFlood flood-opacity="0" result="BackgroundImageFix"/>
<feColorMatrix in="SourceAlpha" type="matrix" values="0 0 0 0 0 0 0 0 0 0 0 0 0 0 0 0 0 0 127 0" result="hardAlpha"/>
<feOffset dy="4"/>
<feGaussianBlur stdDeviation="2"/>
<feComposite in2="hardAlpha" operator="out"/>
<feColorMatrix type="matrix" values="0 0 0 0 0 0 0 0 0 0 0 0 0 0 0 0 0 0 0.25 0"/>
<feBlend mode="normal" in2="BackgroundImageFix" result="effect1_dropShadow_121_91"/>
<feBlend mode="normal" in="SourceGraphic" in2="effect1_dropShadow_121_91" result="shape"/>
</filter>
</defs>
</svg>
